<svg xmlns="http://www.w3.org/2000/svg" width="840" height="540" viewBox="0 0 840 540">
<rect x="0" y="0" width="840" height="540" fill="#ffffff"/>
<text x="90" y="30" font-family="Arial" font-size="20" font-weight="700" fill="#17365d">Capital Allocation Frontier — Kobe Steel · ACCELERATED_15C</text>
<line x1="90.0" y1="55" x2="90.0" y2="465" stroke="#e3e8ef"/>
<text x="90.0" y="490" text-anchor="middle" font-family="Arial" font-size="12" fill="#536273">120</text>
<line x1="90" y1="465.0" x2="805" y2="465.0" stroke="#e3e8ef"/>
<text x="78" y="469.0" text-anchor="end" font-family="Arial" font-size="12" fill="#536273">0</text>
<line x1="233.0" y1="55" x2="233.0" y2="465" stroke="#e3e8ef"/>
<text x="233.0" y="490" text-anchor="middle" font-family="Arial" font-size="12" fill="#536273">128</text>
<line x1="90" y1="383.0" x2="805" y2="383.0" stroke="#e3e8ef"/>
<text x="78" y="387.0" text-anchor="end" font-family="Arial" font-size="12" fill="#536273">10</text>
<line x1="376.0" y1="55" x2="376.0" y2="465" stroke="#e3e8ef"/>
<text x="376.0" y="490" text-anchor="middle" font-family="Arial" font-size="12" fill="#536273">135</text>
<line x1="90" y1="301.0" x2="805" y2="301.0" stroke="#e3e8ef"/>
<text x="78" y="305.0" text-anchor="end" font-family="Arial" font-size="12" fill="#536273">19</text>
<line x1="519.0" y1="55" x2="519.0" y2="465" stroke="#e3e8ef"/>
<text x="519.0" y="490" text-anchor="middle" font-family="Arial" font-size="12" fill="#536273">143</text>
<line x1="90" y1="219.0" x2="805" y2="219.0" stroke="#e3e8ef"/>
<text x="78" y="223.0" text-anchor="end" font-family="Arial" font-size="12" fill="#536273">29</text>
<line x1="662.0" y1="55" x2="662.0" y2="465" stroke="#e3e8ef"/>
<text x="662.0" y="490" text-anchor="middle" font-family="Arial" font-size="12" fill="#536273">150</text>
<line x1="90" y1="137.0" x2="805" y2="137.0" stroke="#e3e8ef"/>
<text x="78" y="141.0" text-anchor="end" font-family="Arial" font-size="12" fill="#536273">39</text>
<line x1="805.0" y1="55" x2="805.0" y2="465" stroke="#e3e8ef"/>
<text x="805.0" y="490" text-anchor="middle" font-family="Arial" font-size="12" fill="#536273">158</text>
<line x1="90" y1="55.0" x2="805" y2="55.0" stroke="#e3e8ef"/>
<text x="78" y="59.0" text-anchor="end" font-family="Arial" font-size="12" fill="#536273">48</text>
<polyline points="184.5,453.6" fill="none" stroke="#173b6c" stroke-width="4"/>
<circle cx="710.5" cy="107.0" r="7" fill="#aab4c0"/>
<text x="720.5" y="97.0" font-family="Arial" font-size="12" fill="#243447">P1</text>
<circle cx="587.2" cy="159.0" r="7" fill="#aab4c0"/>
<text x="597.2" y="149.0" font-family="Arial" font-size="12" fill="#243447">P2</text>
<circle cx="406.0" cy="227.5" r="7" fill="#aab4c0"/>
<text x="416.0" y="217.5" font-family="Arial" font-size="12" fill="#243447">P3</text>
<circle cx="194.6" cy="310.3" r="7" fill="#aab4c0"/>
<text x="204.6" y="300.3" font-family="Arial" font-size="12" fill="#243447">P4</text>
<circle cx="596.8" cy="354.8" r="7" fill="#aab4c0"/>
<text x="606.8" y="344.8" font-family="Arial" font-size="12" fill="#243447">P5</text>
<circle cx="311.7" cy="424.5" r="7" fill="#aab4c0"/>
<text x="321.7" y="414.5" font-family="Arial" font-size="12" fill="#243447">P6</text>
<circle cx="184.5" cy="453.6" r="7" fill="#173b6c"/>
<text x="194.5" y="443.6" font-family="Arial" font-size="12" fill="#243447">P7</text>
<polygon points="431.8,175.0 440.8,184.0 431.8,193.0 422.8,184.0" fill="#8b241e"/>
<text x="441.8" y="174.0" font-family="Arial" font-size="12" fill="#243447">CURRENT</text>
<line x1="90" y1="465" x2="805" y2="465" stroke="#667788" stroke-width="1.5"/>
<line x1="90" y1="55" x2="90" y2="465" stroke="#667788" stroke-width="1.5"/>
<text x="447.5" y="520" text-anchor="middle" font-family="Arial" font-size="14">Expected transition cost P50 (kKRW/tCO2)</text>
<text x="24" y="260.0" transform="rotate(-90 24 260.0)" text-anchor="middle" font-family="Arial" font-size="14">TCaR P90-P50 (kKRW/tCO2)</text>
</svg>