<svg xmlns="http://www.w3.org/2000/svg" width="840" height="540" viewBox="0 0 840 540">
<rect x="0" y="0" width="840" height="540" fill="#ffffff"/>
<text x="90" y="30" font-family="Arial" font-size="20" font-weight="700" fill="#17365d">Capital Allocation Frontier — POSCO · ACCELERATED_15C</text>
<line x1="90.0" y1="55" x2="90.0" y2="465" stroke="#e3e8ef"/>
<text x="90.0" y="490" text-anchor="middle" font-family="Arial" font-size="12" fill="#536273">-18</text>
<line x1="90" y1="465.0" x2="805" y2="465.0" stroke="#e3e8ef"/>
<text x="78" y="469.0" text-anchor="end" font-family="Arial" font-size="12" fill="#536273">0</text>
<line x1="233.0" y1="55" x2="233.0" y2="465" stroke="#e3e8ef"/>
<text x="233.0" y="490" text-anchor="middle" font-family="Arial" font-size="12" fill="#536273">12</text>
<line x1="90" y1="383.0" x2="805" y2="383.0" stroke="#e3e8ef"/>
<text x="78" y="387.0" text-anchor="end" font-family="Arial" font-size="12" fill="#536273">7</text>
<line x1="376.0" y1="55" x2="376.0" y2="465" stroke="#e3e8ef"/>
<text x="376.0" y="490" text-anchor="middle" font-family="Arial" font-size="12" fill="#536273">42</text>
<line x1="90" y1="301.0" x2="805" y2="301.0" stroke="#e3e8ef"/>
<text x="78" y="305.0" text-anchor="end" font-family="Arial" font-size="12" fill="#536273">14</text>
<line x1="519.0" y1="55" x2="519.0" y2="465" stroke="#e3e8ef"/>
<text x="519.0" y="490" text-anchor="middle" font-family="Arial" font-size="12" fill="#536273">72</text>
<line x1="90" y1="219.0" x2="805" y2="219.0" stroke="#e3e8ef"/>
<text x="78" y="223.0" text-anchor="end" font-family="Arial" font-size="12" fill="#536273">21</text>
<line x1="662.0" y1="55" x2="662.0" y2="465" stroke="#e3e8ef"/>
<text x="662.0" y="490" text-anchor="middle" font-family="Arial" font-size="12" fill="#536273">102</text>
<line x1="90" y1="137.0" x2="805" y2="137.0" stroke="#e3e8ef"/>
<text x="78" y="141.0" text-anchor="end" font-family="Arial" font-size="12" fill="#536273">28</text>
<line x1="805.0" y1="55" x2="805.0" y2="465" stroke="#e3e8ef"/>
<text x="805.0" y="490" text-anchor="middle" font-family="Arial" font-size="12" fill="#536273">132</text>
<line x1="90" y1="55.0" x2="805" y2="55.0" stroke="#e3e8ef"/>
<text x="78" y="59.0" text-anchor="end" font-family="Arial" font-size="12" fill="#536273">35</text>
<polyline points="697.2,421.8" fill="none" stroke="#173b6c" stroke-width="4"/>
<circle cx="159.2" cy="352.1" r="7" fill="#aab4c0"/>
<text x="169.2" y="342.1" font-family="Arial" font-size="12" fill="#243447">P1</text>
<circle cx="400.3" cy="240.3" r="7" fill="#aab4c0"/>
<text x="410.3" y="230.3" font-family="Arial" font-size="12" fill="#243447">P2</text>
<circle cx="701.8" cy="179.7" r="7" fill="#aab4c0"/>
<text x="711.8" y="169.7" font-family="Arial" font-size="12" fill="#243447">P3</text>
<circle cx="677.5" cy="272.8" r="7" fill="#aab4c0"/>
<text x="687.5" y="262.8" font-family="Arial" font-size="12" fill="#243447">P4</text>
<circle cx="693.4" cy="354.7" r="7" fill="#aab4c0"/>
<text x="703.4" y="344.7" font-family="Arial" font-size="12" fill="#243447">P5</text>
<circle cx="697.2" cy="421.8" r="7" fill="#173b6c"/>
<text x="707.2" y="411.8" font-family="Arial" font-size="12" fill="#243447">P6</text>
<circle cx="680.0" cy="451.9" r="7" fill="#aab4c0"/>
<text x="690.0" y="441.9" font-family="Arial" font-size="12" fill="#243447">P7</text>
<polygon points="735.8,105.0 744.8,114.0 735.8,123.0 726.8,114.0" fill="#8b241e"/>
<text x="745.8" y="104.0" font-family="Arial" font-size="12" fill="#243447">CURRENT</text>
<line x1="90" y1="465" x2="805" y2="465" stroke="#667788" stroke-width="1.5"/>
<line x1="90" y1="55" x2="90" y2="465" stroke="#667788" stroke-width="1.5"/>
<text x="447.5" y="520" text-anchor="middle" font-family="Arial" font-size="14">Expected transition cost P50 (kKRW/tCO2)</text>
<text x="24" y="260.0" transform="rotate(-90 24 260.0)" text-anchor="middle" font-family="Arial" font-size="14">TCaR P90-P50 (kKRW/tCO2)</text>
</svg>