<svg xmlns="http://www.w3.org/2000/svg" width="840" height="540" viewBox="0 0 840 540">
<rect x="0" y="0" width="840" height="540" fill="#ffffff"/>
<text x="90" y="30" font-family="Arial" font-size="20" font-weight="700" fill="#17365d">Capital Allocation Frontier — Nippon Steel · DISCLOSED_PATH</text>
<line x1="90.0" y1="55" x2="90.0" y2="465" stroke="#e3e8ef"/>
<text x="90.0" y="490" text-anchor="middle" font-family="Arial" font-size="12" fill="#536273">4</text>
<line x1="90" y1="465.0" x2="805" y2="465.0" stroke="#e3e8ef"/>
<text x="78" y="469.0" text-anchor="end" font-family="Arial" font-size="12" fill="#536273">0</text>
<line x1="233.0" y1="55" x2="233.0" y2="465" stroke="#e3e8ef"/>
<text x="233.0" y="490" text-anchor="middle" font-family="Arial" font-size="12" fill="#536273">43</text>
<line x1="90" y1="383.0" x2="805" y2="383.0" stroke="#e3e8ef"/>
<text x="78" y="387.0" text-anchor="end" font-family="Arial" font-size="12" fill="#536273">4</text>
<line x1="376.0" y1="55" x2="376.0" y2="465" stroke="#e3e8ef"/>
<text x="376.0" y="490" text-anchor="middle" font-family="Arial" font-size="12" fill="#536273">82</text>
<line x1="90" y1="301.0" x2="805" y2="301.0" stroke="#e3e8ef"/>
<text x="78" y="305.0" text-anchor="end" font-family="Arial" font-size="12" fill="#536273">8</text>
<line x1="519.0" y1="55" x2="519.0" y2="465" stroke="#e3e8ef"/>
<text x="519.0" y="490" text-anchor="middle" font-family="Arial" font-size="12" fill="#536273">122</text>
<line x1="90" y1="219.0" x2="805" y2="219.0" stroke="#e3e8ef"/>
<text x="78" y="223.0" text-anchor="end" font-family="Arial" font-size="12" fill="#536273">12</text>
<line x1="662.0" y1="55" x2="662.0" y2="465" stroke="#e3e8ef"/>
<text x="662.0" y="490" text-anchor="middle" font-family="Arial" font-size="12" fill="#536273">161</text>
<line x1="90" y1="137.0" x2="805" y2="137.0" stroke="#e3e8ef"/>
<text x="78" y="141.0" text-anchor="end" font-family="Arial" font-size="12" fill="#536273">16</text>
<line x1="805.0" y1="55" x2="805.0" y2="465" stroke="#e3e8ef"/>
<text x="805.0" y="490" text-anchor="middle" font-family="Arial" font-size="12" fill="#536273">200</text>
<line x1="90" y1="55.0" x2="805" y2="55.0" stroke="#e3e8ef"/>
<text x="78" y="59.0" text-anchor="end" font-family="Arial" font-size="12" fill="#536273">20</text>
<polyline points="159.2,257.2 536.8,268.1 724.7,355.3 735.8,427.0" fill="none" stroke="#173b6c" stroke-width="4"/>
<circle cx="159.2" cy="257.2" r="7" fill="#173b6c"/>
<text x="169.2" y="247.2" font-family="Arial" font-size="12" fill="#243447">P1</text>
<circle cx="324.4" cy="155.7" r="7" fill="#aab4c0"/>
<text x="334.4" y="145.7" font-family="Arial" font-size="12" fill="#243447">P2</text>
<circle cx="316.6" cy="220.0" r="7" fill="#aab4c0"/>
<text x="326.6" y="210.0" font-family="Arial" font-size="12" fill="#243447">P3</text>
<circle cx="478.6" cy="186.9" r="7" fill="#aab4c0"/>
<text x="488.6" y="176.9" font-family="Arial" font-size="12" fill="#243447">P4</text>
<circle cx="536.8" cy="268.1" r="7" fill="#173b6c"/>
<text x="546.8" y="258.1" font-family="Arial" font-size="12" fill="#243447">P5</text>
<circle cx="724.7" cy="355.3" r="7" fill="#173b6c"/>
<text x="734.7" y="345.3" font-family="Arial" font-size="12" fill="#243447">P6</text>
<circle cx="735.8" cy="427.0" r="7" fill="#173b6c"/>
<text x="745.8" y="417.0" font-family="Arial" font-size="12" fill="#243447">P7</text>
<polygon points="372.0,160.4 381.0,169.4 372.0,178.4 363.0,169.4" fill="#8b241e"/>
<text x="382.0" y="159.4" font-family="Arial" font-size="12" fill="#243447">CURRENT</text>
<line x1="90" y1="465" x2="805" y2="465" stroke="#667788" stroke-width="1.5"/>
<line x1="90" y1="55" x2="90" y2="465" stroke="#667788" stroke-width="1.5"/>
<text x="447.5" y="520" text-anchor="middle" font-family="Arial" font-size="14">Expected transition cost P50 (kKRW/tCO2)</text>
<text x="24" y="260.0" transform="rotate(-90 24 260.0)" text-anchor="middle" font-family="Arial" font-size="14">TCaR P90-P50 (kKRW/tCO2)</text>
</svg>