<svg xmlns="http://www.w3.org/2000/svg" width="840" height="540" viewBox="0 0 840 540">
<rect x="0" y="0" width="840" height="540" fill="#ffffff"/>
<text x="90" y="30" font-family="Arial" font-size="20" font-weight="700" fill="#17365d">Capital Allocation Frontier — JFE Steel · ACCELERATED_15C</text>
<line x1="90.0" y1="55" x2="90.0" y2="465" stroke="#e3e8ef"/>
<text x="90.0" y="490" text-anchor="middle" font-family="Arial" font-size="12" fill="#536273">-10</text>
<line x1="90" y1="465.0" x2="805" y2="465.0" stroke="#e3e8ef"/>
<text x="78" y="469.0" text-anchor="end" font-family="Arial" font-size="12" fill="#536273">0</text>
<line x1="233.0" y1="55" x2="233.0" y2="465" stroke="#e3e8ef"/>
<text x="233.0" y="490" text-anchor="middle" font-family="Arial" font-size="12" fill="#536273">27</text>
<line x1="90" y1="383.0" x2="805" y2="383.0" stroke="#e3e8ef"/>
<text x="78" y="387.0" text-anchor="end" font-family="Arial" font-size="12" fill="#536273">5</text>
<line x1="376.0" y1="55" x2="376.0" y2="465" stroke="#e3e8ef"/>
<text x="376.0" y="490" text-anchor="middle" font-family="Arial" font-size="12" fill="#536273">64</text>
<line x1="90" y1="301.0" x2="805" y2="301.0" stroke="#e3e8ef"/>
<text x="78" y="305.0" text-anchor="end" font-family="Arial" font-size="12" fill="#536273">10</text>
<line x1="519.0" y1="55" x2="519.0" y2="465" stroke="#e3e8ef"/>
<text x="519.0" y="490" text-anchor="middle" font-family="Arial" font-size="12" fill="#536273">101</text>
<line x1="90" y1="219.0" x2="805" y2="219.0" stroke="#e3e8ef"/>
<text x="78" y="223.0" text-anchor="end" font-family="Arial" font-size="12" fill="#536273">14</text>
<line x1="662.0" y1="55" x2="662.0" y2="465" stroke="#e3e8ef"/>
<text x="662.0" y="490" text-anchor="middle" font-family="Arial" font-size="12" fill="#536273">138</text>
<line x1="90" y1="137.0" x2="805" y2="137.0" stroke="#e3e8ef"/>
<text x="78" y="141.0" text-anchor="end" font-family="Arial" font-size="12" fill="#536273">19</text>
<line x1="805.0" y1="55" x2="805.0" y2="465" stroke="#e3e8ef"/>
<text x="805.0" y="490" text-anchor="middle" font-family="Arial" font-size="12" fill="#536273">175</text>
<line x1="90" y1="55.0" x2="805" y2="55.0" stroke="#e3e8ef"/>
<text x="78" y="59.0" text-anchor="end" font-family="Arial" font-size="12" fill="#536273">24</text>
<polyline points="159.2,274.3 527.2,319.0 711.1,434.1" fill="none" stroke="#173b6c" stroke-width="4"/>
<circle cx="159.2" cy="274.3" r="7" fill="#173b6c"/>
<text x="169.2" y="264.3" font-family="Arial" font-size="12" fill="#243447">P1</text>
<circle cx="283.4" cy="210.3" r="7" fill="#aab4c0"/>
<text x="293.4" y="200.3" font-family="Arial" font-size="12" fill="#243447">P2</text>
<circle cx="470.9" cy="141.0" r="7" fill="#aab4c0"/>
<text x="480.9" y="131.0" font-family="Arial" font-size="12" fill="#243447">P3</text>
<circle cx="567.0" cy="204.8" r="7" fill="#aab4c0"/>
<text x="577.0" y="194.8" font-family="Arial" font-size="12" fill="#243447">P4</text>
<circle cx="527.2" cy="319.0" r="7" fill="#173b6c"/>
<text x="537.2" y="309.0" font-family="Arial" font-size="12" fill="#243447">P5</text>
<circle cx="735.8" cy="366.6" r="7" fill="#aab4c0"/>
<text x="745.8" y="356.6" font-family="Arial" font-size="12" fill="#243447">P6</text>
<circle cx="711.1" cy="434.1" r="7" fill="#173b6c"/>
<text x="721.1" y="424.1" font-family="Arial" font-size="12" fill="#243447">P7</text>
<polygon points="291.8,250.2 300.8,259.2 291.8,268.2 282.8,259.2" fill="#8b241e"/>
<text x="301.8" y="249.2" font-family="Arial" font-size="12" fill="#243447">CURRENT</text>
<line x1="90" y1="465" x2="805" y2="465" stroke="#667788" stroke-width="1.5"/>
<line x1="90" y1="55" x2="90" y2="465" stroke="#667788" stroke-width="1.5"/>
<text x="447.5" y="520" text-anchor="middle" font-family="Arial" font-size="14">Expected transition cost P50 (kKRW/tCO2)</text>
<text x="24" y="260.0" transform="rotate(-90 24 260.0)" text-anchor="middle" font-family="Arial" font-size="14">TCaR P90-P50 (kKRW/tCO2)</text>
</svg>