<svg xmlns="http://www.w3.org/2000/svg" width="840" height="540" viewBox="0 0 840 540">
<rect x="0" y="0" width="840" height="540" fill="#ffffff"/>
<text x="90" y="30" font-family="Arial" font-size="20" font-weight="700" fill="#17365d">Capital Allocation Frontier — JFE Steel · ACCELERATED_15C</text>
<line x1="90.0" y1="55" x2="90.0" y2="465" stroke="#e3e8ef"/>
<text x="90.0" y="490" text-anchor="middle" font-family="Arial" font-size="12" fill="#536273">-10</text>
<line x1="90" y1="465.0" x2="805" y2="465.0" stroke="#e3e8ef"/>
<text x="78" y="469.0" text-anchor="end" font-family="Arial" font-size="12" fill="#536273">0</text>
<line x1="233.0" y1="55" x2="233.0" y2="465" stroke="#e3e8ef"/>
<text x="233.0" y="490" text-anchor="middle" font-family="Arial" font-size="12" fill="#536273">27</text>
<line x1="90" y1="383.0" x2="805" y2="383.0" stroke="#e3e8ef"/>
<text x="78" y="387.0" text-anchor="end" font-family="Arial" font-size="12" fill="#536273">5</text>
<line x1="376.0" y1="55" x2="376.0" y2="465" stroke="#e3e8ef"/>
<text x="376.0" y="490" text-anchor="middle" font-family="Arial" font-size="12" fill="#536273">64</text>
<line x1="90" y1="301.0" x2="805" y2="301.0" stroke="#e3e8ef"/>
<text x="78" y="305.0" text-anchor="end" font-family="Arial" font-size="12" fill="#536273">10</text>
<line x1="519.0" y1="55" x2="519.0" y2="465" stroke="#e3e8ef"/>
<text x="519.0" y="490" text-anchor="middle" font-family="Arial" font-size="12" fill="#536273">101</text>
<line x1="90" y1="219.0" x2="805" y2="219.0" stroke="#e3e8ef"/>
<text x="78" y="223.0" text-anchor="end" font-family="Arial" font-size="12" fill="#536273">15</text>
<line x1="662.0" y1="55" x2="662.0" y2="465" stroke="#e3e8ef"/>
<text x="662.0" y="490" text-anchor="middle" font-family="Arial" font-size="12" fill="#536273">138</text>
<line x1="90" y1="137.0" x2="805" y2="137.0" stroke="#e3e8ef"/>
<text x="78" y="141.0" text-anchor="end" font-family="Arial" font-size="12" fill="#536273">20</text>
<line x1="805.0" y1="55" x2="805.0" y2="465" stroke="#e3e8ef"/>
<text x="805.0" y="490" text-anchor="middle" font-family="Arial" font-size="12" fill="#536273">176</text>
<line x1="90" y1="55.0" x2="805" y2="55.0" stroke="#e3e8ef"/>
<text x="78" y="59.0" text-anchor="end" font-family="Arial" font-size="12" fill="#536273">26</text>
<polyline points="527.7,332.7" fill="none" stroke="#173b6c" stroke-width="4"/>
<circle cx="159.2" cy="306.3" r="7" fill="#aab4c0"/>
<text x="169.2" y="296.3" font-family="Arial" font-size="12" fill="#243447">P1</text>
<circle cx="286.1" cy="235.1" r="7" fill="#aab4c0"/>
<text x="296.1" y="225.1" font-family="Arial" font-size="12" fill="#243447">P2</text>
<circle cx="516.5" cy="135.2" r="7" fill="#aab4c0"/>
<text x="526.5" y="125.2" font-family="Arial" font-size="12" fill="#243447">P3</text>
<circle cx="568.4" cy="224.0" r="7" fill="#aab4c0"/>
<text x="578.4" y="214.0" font-family="Arial" font-size="12" fill="#243447">P4</text>
<circle cx="527.7" cy="332.7" r="7" fill="#173b6c"/>
<text x="537.7" y="322.7" font-family="Arial" font-size="12" fill="#243447">P5</text>
<circle cx="735.8" cy="388.1" r="7" fill="#aab4c0"/>
<text x="745.8" y="378.1" font-family="Arial" font-size="12" fill="#243447">P6</text>
<circle cx="709.9" cy="443.6" r="7" fill="#aab4c0"/>
<text x="719.9" y="433.6" font-family="Arial" font-size="12" fill="#243447">P7</text>
<polygon points="296.1,263.6 305.1,272.6 296.1,281.6 287.1,272.6" fill="#8b241e"/>
<text x="306.1" y="262.6" font-family="Arial" font-size="12" fill="#243447">CURRENT</text>
<line x1="90" y1="465" x2="805" y2="465" stroke="#667788" stroke-width="1.5"/>
<line x1="90" y1="55" x2="90" y2="465" stroke="#667788" stroke-width="1.5"/>
<text x="447.5" y="520" text-anchor="middle" font-family="Arial" font-size="14">Expected transition cost P50 (kKRW/tCO2)</text>
<text x="24" y="260.0" transform="rotate(-90 24 260.0)" text-anchor="middle" font-family="Arial" font-size="14">TCaR P90-P50 (kKRW/tCO2)</text>
</svg>